# xmcd CD database file
#
# Track frame offsets:
#	150
#	16902
#	43717
#	51476
#	86692
#	131388
#	146852
#	165774
#	175627
#	211473
#	249242
#	278742
#	315724
#
# Disc length: 4393 seconds
#
# Revision: 0
# Processed by: cddbd v1.5.2PL0 Copyright (c) Steve Scherf et al.
# Submitted via: CDex 1.70beta2
#
DISCID=ad11270d
DTITLE=Terence Blanchard - A Tale Of God's Will  (A requiem for Katrina)
DYEAR=2007
DGENRE=Jazz
TTITLE0=Ghost of Congo Square
TTITLE1=Levees
TTITLE2=Wading Through
TTITLE3=Ashe
TTITLE4=In Time of Need
TTITLE5=Ghost of Betsy
TTITLE6=The Water
TTITLE7=Mantra Intro
TTITLE8=Mantra
TTITLE9=Over There
TTITLE10=Ghost of 1927
TTITLE11=Funeral Dirge
TTITLE12=Dear Mom
EXTD=YEAR: 2007
EXTT0=
EXTT1=
EXTT2=
EXTT3=
EXTT4=
EXTT5=
EXTT6=
EXTT7=
EXTT8=
EXTT9=
EXTT10=
EXTT11=
EXTT12=
PLAYORDER=
